<?xml version="1.0" standalone="no"?>
<!DOCTYPE svg PUBLIC "-//W3C//DTD SVG 20010904//EN"
 "http://www.w3.org/TR/2001/REC-SVG-20010904/DTD/svg10.dtd">
<svg version="1.0" xmlns="http://www.w3.org/2000/svg"
 width="79.000000pt" height="90.000000pt" viewBox="0 0 79.000000 90.000000"
 preserveAspectRatio="xMidYMid meet">

<g transform="translate(0.000000,90.000000) scale(0.100000,-0.100000)"
fill="#000000" stroke="none">
<path d="M350 861 c-126 -41 -216 -112 -270 -213 -30 -55 -35 -74 -38 -154 -3
-65 0 -107 12 -146 42 -144 185 -266 344 -293 l42 -7 0 32 c0 46 16 70 48 70
42 0 164 63 197 101 15 19 39 58 53 87 22 48 24 64 20 145 -5 105 -18 138 -82
201 -45 45 -139 96 -178 96 -36 0 -50 15 -57 56 -8 46 -18 49 -91 25z m96
-123 c7 -35 14 -44 34 -46 92 -11 167 -83 189 -182 26 -114 -62 -253 -169
-267 -44 -6 -60 -27 -60 -77 0 -23 -2 -23 -52 -14 -109 20 -188 87 -238 202
-24 57 -26 141 -5 213 29 99 163 213 251 213 39 0 40 -1 50 -42z"/>
<path d="M355 676 c-79 -35 -145 -130 -145 -211 1 -78 64 -171 142 -208 63
-30 98 -15 98 42 0 14 13 26 43 39 55 24 90 77 89 134 -1 52 -25 86 -86 117
-32 17 -48 32 -52 50 -10 47 -13 51 -36 51 -13 -1 -36 -7 -53 -14z m90 -117
c5 -19 20 -48 32 -63 23 -29 22 -37 -6 -70 -9 -10 -21 -34 -26 -54 -13 -47
-31 -50 -82 -13 -80 58 -81 154 -1 212 51 37 69 34 83 -12z"/>
</g>
</svg>
