<?xml version="1.0" standalone="no"?>
<!DOCTYPE svg PUBLIC "-//W3C//DTD SVG 20010904//EN"
 "http://www.w3.org/TR/2001/REC-SVG-20010904/DTD/svg10.dtd">
<svg version="1.0" xmlns="http://www.w3.org/2000/svg"
 width="341.000000pt" height="73.000000pt" viewBox="0 0 341.000000 73.000000"
 preserveAspectRatio="xMidYMid meet">

<g transform="translate(0.000000,73.000000) scale(0.100000,-0.100000)"
fill="#000000" stroke="none">
<path d="M161 711 c-48 -13 -83 -41 -106 -87 -18 -35 -20 -59 -20 -254 0 -189
2 -219 18 -248 28 -51 83 -72 192 -72 140 0 191 36 202 143 l6 57 -42 0 -41 0
0 -40 c0 -51 -25 -76 -83 -85 -64 -10 -121 2 -148 31 -21 23 -23 35 -27 174
-5 174 2 251 27 282 15 18 31 23 88 26 94 5 130 -13 139 -68 6 -39 8 -40 45
-40 34 0 39 3 39 24 0 59 -34 117 -84 143 -34 18 -157 26 -205 14z"/>
<path d="M2181 711 c-45 -12 -80 -39 -102 -80 -15 -28 -18 -62 -19 -245 0
-201 1 -213 22 -255 33 -65 77 -84 192 -85 71 0 100 4 131 19 64 32 78 67 83
216 l5 129 -107 0 -106 0 0 -35 0 -34 63 -3 62 -3 -1 -84 c-1 -79 -3 -86 -28
-108 -23 -20 -38 -23 -101 -23 -64 0 -78 3 -102 24 l-28 24 -3 199 c-2 183 -1
200 17 230 52 83 241 58 241 -32 0 -23 4 -25 40 -25 40 0 40 0 40 38 0 47 -30
96 -71 118 -38 19 -175 28 -228 15z"/>
<path d="M1140 420 c0 -243 3 -296 15 -321 17 -31 49 -49 91 -49 21 0 24 4 24
38 0 29 -5 39 -22 47 -23 10 -23 10 -26 293 l-2 282 -40 0 -40 0 0 -290z"/>
<path d="M706 665 c-73 -30 -137 -91 -168 -159 -32 -72 -31 -181 1 -253 40
-89 142 -167 236 -180 l45 -6 0 37 c0 33 3 36 28 36 36 0 121 41 148 71 44 49
64 101 64 167 0 71 -14 112 -56 161 -32 38 -115 81 -156 81 -25 0 -28 4 -28
35 0 32 -3 35 -27 35 -16 0 -55 -11 -87 -25z m114 -80 c0 -31 3 -35 25 -35 88
0 167 -111 145 -204 -16 -70 -84 -136 -141 -136 -27 0 -29 -3 -29 -36 l0 -37
-41 7 c-80 13 -137 58 -175 141 -28 58 -30 113 -8 177 27 80 123 157 197 158
24 0 27 -3 27 -35z"/>
<path d="M734 531 c-69 -42 -106 -123 -85 -191 21 -70 90 -130 150 -130 15 0
20 8 23 33 2 24 8 33 25 35 30 4 69 47 77 83 11 55 -22 102 -86 123 -12 3 -18
16 -18 36 0 26 -4 30 -27 30 -16 0 -42 -9 -59 -19z m86 -81 c0 -19 7 -33 20
-40 11 -6 20 -19 20 -30 0 -11 -9 -24 -20 -30 -13 -7 -20 -21 -20 -40 0 -40
-29 -40 -72 -1 -27 24 -33 36 -33 71 0 35 6 47 33 71 43 39 72 39 72 -1z"/>
<path d="M1447 549 c-50 -15 -93 -56 -106 -105 -14 -50 -14 -237 0 -289 22
-82 97 -123 205 -112 67 7 112 32 139 77 18 31 20 52 20 180 0 164 -8 192 -70
230 -41 26 -131 34 -188 19z m150 -81 c25 -20 35 -85 31 -190 -2 -77 -8 -111
-21 -131 -20 -31 -69 -43 -124 -30 -57 13 -73 52 -73 183 0 119 17 169 60 182
31 8 111 0 127 -14z"/>
<path d="M1916 549 c-15 -4 -37 -16 -47 -25 -18 -16 -19 -16 -19 4 0 19 -6 22
-40 22 l-40 0 0 -250 0 -250 40 0 40 0 0 170 c0 135 3 177 15 201 17 32 49 49
96 49 27 0 29 3 29 39 0 32 -4 39 -23 43 -12 2 -35 1 -51 -3z"/>
<path d="M3146 550 c-16 -5 -39 -19 -52 -31 l-24 -22 0 26 c0 24 -4 27 -35 27
l-35 0 0 -250 0 -250 40 0 40 0 0 186 0 186 29 29 c24 23 38 29 73 29 55 0 84
-20 98 -68 5 -20 10 -110 10 -199 l0 -163 41 0 41 0 -4 203 c-3 171 -6 207
-21 235 -31 57 -122 85 -201 62z"/>
<path d="M2640 532 c-19 -9 -45 -32 -57 -51 -21 -31 -23 -45 -23 -180 0 -165
10 -201 67 -234 38 -22 151 -26 206 -8 46 16 87 64 87 102 0 27 -3 29 -39 29
-33 0 -40 -4 -45 -25 -8 -30 -41 -45 -101 -45 -58 0 -84 23 -96 84 -5 26 -6
52 -3 57 3 5 70 9 150 9 l144 0 0 43 c0 123 -27 189 -92 223 -39 20 -155 18
-198 -4z m170 -62 c21 -11 40 -60 40 -101 l0 -29 -111 0 c-111 0 -111 0 -105
23 3 12 6 32 6 43 0 12 9 33 21 48 18 22 28 26 75 26 31 0 64 -4 74 -10z"/>
</g>
</svg>
